<svg width="198" height="78" viewBox="0 0 198 78" fill="none" xmlns="http://www.w3.org/2000/svg">
<g filter="url(#filter0_dd_1_5)">
<path fill-rule="evenodd" clip-rule="evenodd" d="M16.472 5.478C14.792 5.967 12.428 7.419 11.219 8.705C8.884 11.192 4.027 22.582 4.027 25.574C4.027 28.845 9.151 30.41 19.862 30.41C29.06 30.41 30.527 30.5 31.527 28.5L32.027 26.5V26H31.027L28.749 26.121L26.471 26.242C20.527 26.41 18.027 26.242 18.027 25.5L18 23V21V18.8767L18.85 16.1233C21.686 8.60325 22.758 9 31.527 9C37.959 9 39.037 8.64575 39.5 6.87675C41 3.87674 39.369 4.414 29.683 4.5C24.097 4.55 18.152 4.99 16.472 5.478ZM74.846 14.155L65.165 14.481L63.434 19.195C62.482 21.788 61.105 25.417 60.375 27.259L59.046 30.608L67.933 30.259C77.628 29.878 80.027 30.5 81.027 23.862C81.027 21.406 79.321 20.41 75.112 20.41C70.527 20.5 70.527 22.5 72.609 23.135C74.447 24.972 72.871 27.349 69.96 27.13C67.65 26.956 67.538 25.516 69.476 20.878C70.902 17.466 71.021 17.41 76.941 17.41C81.933 17.41 83.139 17.82 84.027 16.16C84.616 15.06 84.969 13.504 84.812 13.619C84.655 13.734 80.171 13.975 74.846 14.155ZM39.656 15.201C39.215 15.915 34.027 29.396 34.027 29.828C34.027 29.927 35.8801 29.8643 38.027 29.828C42.291 29.756 42.429 28.109 45.228 25.023C48.915 20.956 48.955 20.94 48.774 23.66C48.673 25.172 48.44 27.5 48.027 27.5C48.027 28.5 47.711 28.585 48.027 29.41C48.351 30.253 50.442 30 52.027 30C54.554 30 54.1 28.81 55.961 23.66C57.103 20.497 58.49 17.123 59.041 16.16C59.908 14.648 56.813 15 54.027 15C51.537 15 52.476 15.492 48.679 19.16C43.478 24.184 43.607 24.29 45.643 16.66C46.17 14.687 45.701 15 43.027 15C41.527 15 39.925 14.766 39.656 15.201ZM41.763 36.16L4 36.434L8.015 41.514C10.224 44.308 12.426 47.301 12.91 48.166C13.701 49.579 15.736 49.472 33.158 47.104C70.756 41.994 125.075 38.74 177.027 36C183.627 35.652 94.513 35.776 41.763 36.16Z" fill="#FFCB03"/>
<path fill-rule="evenodd" clip-rule="evenodd" d="M16.472 5.478C14.792 5.967 12.428 7.419 11.219 8.705C8.884 11.192 4.027 22.582 4.027 25.574C4.027 28.845 9.151 30.41 19.862 30.41C29.06 30.41 30.527 30.5 31.527 28.5L32.027 26.5V26H31.027L28.749 26.121L26.471 26.242C20.527 26.41 18.027 26.242 18.027 25.5L18 23V21V18.8767L18.85 16.1233C21.686 8.60325 22.758 9 31.527 9C37.959 9 39.037 8.64575 39.5 6.87675C41 3.87674 39.369 4.414 29.683 4.5C24.097 4.55 18.152 4.99 16.472 5.478ZM74.846 14.155L65.165 14.481L63.434 19.195C62.482 21.788 61.105 25.417 60.375 27.259L59.046 30.608L67.933 30.259C77.628 29.878 80.027 30.5 81.027 23.862C81.027 21.406 79.321 20.41 75.112 20.41C70.527 20.5 70.527 22.5 72.609 23.135C74.447 24.972 72.871 27.349 69.96 27.13C67.65 26.956 67.538 25.516 69.476 20.878C70.902 17.466 71.021 17.41 76.941 17.41C81.933 17.41 83.139 17.82 84.027 16.16C84.616 15.06 84.969 13.504 84.812 13.619C84.655 13.734 80.171 13.975 74.846 14.155ZM39.656 15.201C39.215 15.915 34.027 29.396 34.027 29.828C34.027 29.927 35.8801 29.8643 38.027 29.828C42.291 29.756 42.429 28.109 45.228 25.023C48.915 20.956 48.955 20.94 48.774 23.66C48.673 25.172 48.44 27.5 48.027 27.5C48.027 28.5 47.711 28.585 48.027 29.41C48.351 30.253 50.442 30 52.027 30C54.554 30 54.1 28.81 55.961 23.66C57.103 20.497 58.49 17.123 59.041 16.16C59.908 14.648 56.813 15 54.027 15C51.537 15 52.476 15.492 48.679 19.16C43.478 24.184 43.607 24.29 45.643 16.66C46.17 14.687 45.701 15 43.027 15C41.527 15 39.925 14.766 39.656 15.201ZM41.763 36.16L4 36.434L8.015 41.514C10.224 44.308 12.426 47.301 12.91 48.166C13.701 49.579 15.736 49.472 33.158 47.104C70.756 41.994 125.075 38.74 177.027 36C183.627 35.652 94.513 35.776 41.763 36.16Z" fill="#8EACBC"/>
</g>
<g filter="url(#filter1_dd_1_5)">
<path fill-rule="evenodd" clip-rule="evenodd" d="M97.42 4.33826C94.386 4.63326 94.151 5.01426 90.051 16.3383C87.722 22.7703 85.307 28.6743 84.685 29.4563C83.749 30.6353 83.985 30.7663 86.054 30.2203C87.429 29.8573 89.08 29.5543 89.724 29.5473C90.367 29.5393 91.641 27.2833 92.554 24.5333C93.467 21.7833 94.361 19.5333 94.539 19.5333C94.718 19.5333 96.037 21.5353 97.471 23.9813C98.905 26.4283 100.515 28.7003 101.049 29.0303C101.583 29.3603 104.763 27.7683 108.114 25.4923C111.466 23.2163 114.4 21.5463 114.636 21.7813C115.267 22.4133 111.419 28.8433 111.419 30.4323C110.882 30.7883 116.237 30.7173 120.027 30.4323C123.817 30.1473 125.16 30.1663 125.527 29.8203C125.894 29.4743 127.486 23.4173 129.44 17.7753C131.394 12.1333 133.437 6.68726 133.98 5.67226C135.991 1.91426 129.699 4.67426 119.316 12.1043L109.078 19.4303L106.669 15.2323C105.345 12.9223 103.427 9.45826 102.407 7.53326C100.813 4.52226 100.116 4.07626 97.42 4.33826ZM185.419 13.9323C176.919 13.9323 175.803 14.1262 173.438 20.4323C172.419 22.6893 172.919 21.4323 171.919 23.9323C170.057 28.5877 172.231 29.6903 181.212 29.3293L186.919 28.8433L188.419 28.4323L188.919 27.9323L190.873 24.3603C192.149 21.7903 193.527 18 193.527 16.5V16L193.027 15L192.527 14.5L191.527 14L185.419 13.9323ZM137.419 15.9753C136.055 17.0483 134.812 18.9323 133.583 23.0973C131.419 30.4323 129.919 29.0303 142.049 29.2893L147.027 29L149.027 28.5L150.027 27.5L151.219 25.4713C151.919 23.2833 153.204 20.2493 153.585 18.2213L154.277 14.5333H147.3C141.896 14.5333 139.341 14.4643 137.419 15.9753ZM164.419 14.7373C159.527 14.7373 156.052 14.475 155.527 15C154.919 15.608 155.502 18 157.527 18H161.027L158.891 23.2833C157.717 26.4463 156.261 29.3873 155.655 29.8203C155.05 30.2533 157.527 30.5 159.527 30.5C161.527 30.5 162.267 30.1703 162.527 29.9373C162.788 29.7033 164.439 26.0813 165.584 23.2253C167.263 19.0353 167.42 18.249 169.527 18C170.962 17.83 172.723 18.3263 173.027 17.5333C173.331 16.7403 174.039 14.3203 173.919 14.4323C173.798 14.5433 169.311 14.7373 164.419 14.7373ZM149.054 20.3103C149.054 26.0323 144.503 26.9263 138.636 26.9263C136.686 26.1783 136.668 25.3923 138.503 21.0013C139.855 17.7643 140.255 17.5333 144.503 17.5333C148.812 17.5333 149.054 17.6813 149.054 20.3103ZM188.419 19.9323C187.919 20.9323 186.568 23.351 186.527 24C184.778 25.707 184.131 26.9323 180.919 26.9323C176.587 26.9323 175.927 25.9983 177.185 22.6893C178.81 18.4143 180.089 17.5333 184.67 17.5333C188.661 17.5333 188.802 17.8783 188.419 19.9323ZM154.527 38C149.5 38.5 149.505 38.4877 145.027 39C99.4 42.415 49.995 49.6063 23.694 56.6373L19.834 57.6693L21.809 59.8513C22.895 61.0513 25.389 64.5823 27.351 67.6963L30.918 73.3603L41.546 68.9683C70.644 56.9433 107.826 47.4623 154.554 40.1533C160.054 39.2923 177.652 37.219 179.027 37C180.402 36.782 169.326 37.443 165.027 37.5C160.728 37.557 165.753 37.4857 154.527 38Z" fill="#E2651F"/>
<path fill-rule="evenodd" clip-rule="evenodd" d="M97.42 4.33826C94.386 4.63326 94.151 5.01426 90.051 16.3383C87.722 22.7703 85.307 28.6743 84.685 29.4563C83.749 30.6353 83.985 30.7663 86.054 30.2203C87.429 29.8573 89.08 29.5543 89.724 29.5473C90.367 29.5393 91.641 27.2833 92.554 24.5333C93.467 21.7833 94.361 19.5333 94.539 19.5333C94.718 19.5333 96.037 21.5353 97.471 23.9813C98.905 26.4283 100.515 28.7003 101.049 29.0303C101.583 29.3603 104.763 27.7683 108.114 25.4923C111.466 23.2163 114.4 21.5463 114.636 21.7813C115.267 22.4133 111.419 28.8433 111.419 30.4323C110.882 30.7883 116.237 30.7173 120.027 30.4323C123.817 30.1473 125.16 30.1663 125.527 29.8203C125.894 29.4743 127.486 23.4173 129.44 17.7753C131.394 12.1333 133.437 6.68726 133.98 5.67226C135.991 1.91426 129.699 4.67426 119.316 12.1043L109.078 19.4303L106.669 15.2323C105.345 12.9223 103.427 9.45826 102.407 7.53326C100.813 4.52226 100.116 4.07626 97.42 4.33826ZM185.419 13.9323C176.919 13.9323 175.803 14.1262 173.438 20.4323C172.419 22.6893 172.919 21.4323 171.919 23.9323C170.057 28.5877 172.231 29.6903 181.212 29.3293L186.919 28.8433L188.419 28.4323L188.919 27.9323L190.873 24.3603C192.149 21.7903 193.527 18 193.527 16.5V16L193.027 15L192.527 14.5L191.527 14L185.419 13.9323ZM137.419 15.9753C136.055 17.0483 134.812 18.9323 133.583 23.0973C131.419 30.4323 129.919 29.0303 142.049 29.2893L147.027 29L149.027 28.5L150.027 27.5L151.219 25.4713C151.919 23.2833 153.204 20.2493 153.585 18.2213L154.277 14.5333H147.3C141.896 14.5333 139.341 14.4643 137.419 15.9753ZM164.419 14.7373C159.527 14.7373 156.052 14.475 155.527 15C154.919 15.608 155.502 18 157.527 18H161.027L158.891 23.2833C157.717 26.4463 156.261 29.3873 155.655 29.8203C155.05 30.2533 157.527 30.5 159.527 30.5C161.527 30.5 162.267 30.1703 162.527 29.9373C162.788 29.7033 164.439 26.0813 165.584 23.2253C167.263 19.0353 167.42 18.249 169.527 18C170.962 17.83 172.723 18.3263 173.027 17.5333C173.331 16.7403 174.039 14.3203 173.919 14.4323C173.798 14.5433 169.311 14.7373 164.419 14.7373ZM149.054 20.3103C149.054 26.0323 144.503 26.9263 138.636 26.9263C136.686 26.1783 136.668 25.3923 138.503 21.0013C139.855 17.7643 140.255 17.5333 144.503 17.5333C148.812 17.5333 149.054 17.6813 149.054 20.3103ZM188.419 19.9323C187.919 20.9323 186.568 23.351 186.527 24C184.778 25.707 184.131 26.9323 180.919 26.9323C176.587 26.9323 175.927 25.9983 177.185 22.6893C178.81 18.4143 180.089 17.5333 184.67 17.5333C188.661 17.5333 188.802 17.8783 188.419 19.9323ZM154.527 38C149.5 38.5 149.505 38.4877 145.027 39C99.4 42.415 49.995 49.6063 23.694 56.6373L19.834 57.6693L21.809 59.8513C22.895 61.0513 25.389 64.5823 27.351 67.6963L30.918 73.3603L41.546 68.9683C70.644 56.9433 107.826 47.4623 154.554 40.1533C160.054 39.2923 177.652 37.219 179.027 37C180.402 36.782 169.326 37.443 165.027 37.5C160.728 37.557 165.753 37.4857 154.527 38Z" fill="#FFCB03"/>
</g>
<defs>
<filter id="filter0_dd_1_5" x="0" y="0.408447" width="181.374" height="52.6786" filterUnits="userSpaceOnUse" color-interpolation-filters="sRGB">
<feFlood flood-opacity="0" result="BackgroundImageFix"/>
<feColorMatrix in="SourceAlpha" type="matrix" values="0 0 0 0 0 0 0 0 0 0 0 0 0 0 0 0 0 0 127 0" result="hardAlpha"/>
<feOffset dx="2" dy="2"/>
<feGaussianBlur stdDeviation="1"/>
<feComposite in2="hardAlpha" operator="out"/>
<feColorMatrix type="matrix" values="0 0 0 0 0 0 0 0 0 0 0 0 0 0 0 0 0 0 0.5 0"/>
<feBlend mode="normal" in2="BackgroundImageFix" result="effect1_dropShadow_1_5"/>
<feColorMatrix in="SourceAlpha" type="matrix" values="0 0 0 0 0 0 0 0 0 0 0 0 0 0 0 0 0 0 127 0" result="hardAlpha"/>
<feOffset dx="-1" dy="-1"/>
<feGaussianBlur stdDeviation="1.5"/>
<feComposite in2="hardAlpha" operator="out"/>
<feColorMatrix type="matrix" values="0 0 0 0 1 0 0 0 0 1 0 0 0 0 1 0 0 0 0.2 0"/>
<feBlend mode="normal" in2="effect1_dropShadow_1_5" result="effect2_dropShadow_1_5"/>
<feBlend mode="normal" in="SourceGraphic" in2="effect2_dropShadow_1_5" result="shape"/>
</filter>
<filter id="filter1_dd_1_5" x="15.834" y="0" width="181.693" height="77.3603" filterUnits="userSpaceOnUse" color-interpolation-filters="sRGB">
<feFlood flood-opacity="0" result="BackgroundImageFix"/>
<feColorMatrix in="SourceAlpha" type="matrix" values="0 0 0 0 0 0 0 0 0 0 0 0 0 0 0 0 0 0 127 0" result="hardAlpha"/>
<feOffset dx="2" dy="2"/>
<feGaussianBlur stdDeviation="1"/>
<feComposite in2="hardAlpha" operator="out"/>
<feColorMatrix type="matrix" values="0 0 0 0 0 0 0 0 0 0 0 0 0 0 0 0 0 0 0.5 0"/>
<feBlend mode="normal" in2="BackgroundImageFix" result="effect1_dropShadow_1_5"/>
<feColorMatrix in="SourceAlpha" type="matrix" values="0 0 0 0 0 0 0 0 0 0 0 0 0 0 0 0 0 0 127 0" result="hardAlpha"/>
<feOffset dx="-1" dy="-1"/>
<feGaussianBlur stdDeviation="1.5"/>
<feComposite in2="hardAlpha" operator="out"/>
<feColorMatrix type="matrix" values="0 0 0 0 1 0 0 0 0 1 0 0 0 0 1 0 0 0 0.2 0"/>
<feBlend mode="normal" in2="effect1_dropShadow_1_5" result="effect2_dropShadow_1_5"/>
<feBlend mode="normal" in="SourceGraphic" in2="effect2_dropShadow_1_5" result="shape"/>
</filter>
</defs>
</svg>
